<svg width="32" height="32" viewBox="0 0 32 32" fill="none" xmlns="http://www.w3.org/2000/svg">
<path d="M15.9875 2.38477C8.25937 2.38164 2 8.63789 2 16.3598C2 22.466 5.91562 27.6566 11.3687 29.5629C12.1031 29.7473 11.9906 29.2254 11.9906 28.8691V26.4473C7.75 26.9441 7.57812 24.1379 7.29375 23.6691C6.71875 22.6879 5.35937 22.4379 5.76562 21.9691C6.73125 21.4723 7.71562 22.0941 8.85625 23.7785C9.68125 25.0004 11.2906 24.7941 12.1062 24.591C12.2844 23.8566 12.6656 23.2004 13.1906 22.691C8.79687 21.9035 6.96562 19.2223 6.96562 16.0348C6.96562 14.4879 7.475 13.066 8.475 11.9191C7.8375 10.0285 8.53437 8.40977 8.62812 8.16914C10.4437 8.00664 12.3312 9.46914 12.4781 9.58477C13.5094 9.30664 14.6875 9.15977 16.0062 9.15977C17.3312 9.15977 18.5125 9.31289 19.5531 9.59414C19.9062 9.32539 21.6562 8.06914 23.3437 8.22227C23.4344 8.46289 24.1156 10.0441 23.5156 11.9098C24.5281 13.0598 25.0437 14.4941 25.0437 16.0441C25.0437 19.2379 23.2 21.9223 18.7937 22.6973C19.1712 23.0684 19.4708 23.5111 19.6752 23.9993C19.8797 24.4876 19.9848 25.0117 19.9844 25.541V29.0566C20.0094 29.3379 19.9844 29.616 20.4531 29.616C25.9875 27.7504 29.9719 22.5223 29.9719 16.3629C29.9719 8.63789 23.7094 2.38477 15.9875 2.38477Z" fill="white"/>
</svg>
