<svg width="24" height="24" viewBox="0 0 24 24" fill="none" xmlns="http://www.w3.org/2000/svg">
<path d="M12 1.63135C1.36875 1.63135 1.125 13.5376 1.125 15.9001C1.125 18.2626 6 20.1751 12 20.1751C18 20.1751 22.875 18.2626 22.875 15.9001C22.875 13.5376 22.6313 1.63135 12 1.63135V1.63135Z" fill="#FCC21B"/>
<path d="M8.60547 11.7188C8.60547 11.7188 10.4995 13.875 15.093 13.1625" stroke="#2F2F2F" stroke-width="2" stroke-miterlimit="10" stroke-linecap="round"/>
<path d="M8.58753 8.53116C7.91253 8.43741 7.46253 7.72491 7.55628 6.91866C7.65003 6.11241 8.28753 5.53116 8.96253 5.62491C9.63753 5.71866 10.0875 6.43116 9.99378 7.23741C9.88128 8.04366 9.26253 8.62491 8.58753 8.53116ZM16.4625 8.04366C16.4625 7.93116 16.4438 7.83741 16.425 7.74366C16.4063 7.68741 16.3688 7.63116 16.3125 7.61241C15.9563 7.44366 15.075 7.08741 14.5688 6.93741C14.4938 6.91866 14.4188 6.93741 14.3813 6.99366C14.1375 7.27491 13.9875 7.66866 14.0063 8.09991C14.025 8.90616 14.6063 9.56241 15.2813 9.54366C15.9375 9.54366 16.4813 8.86866 16.4625 8.04366Z" fill="#2F2F2F"/>
<path d="M6.9748 22.6875C5.56855 22.6875 4.6123 22.2937 3.84355 21.4312C2.90605 20.3437 3.0373 18.9749 3.1498 17.7562C3.20605 17.0812 3.39355 16.6875 3.54355 16.3312C3.7123 15.9562 3.84355 15.6375 3.8623 14.9812C3.8623 14.8312 3.8248 14.5875 3.7873 14.3437C3.6748 13.6687 3.5248 12.9 4.0123 12.5437C4.18105 12.4125 4.40605 12.3562 4.66855 12.3562C5.1373 12.3562 5.6248 12.5812 5.86855 12.9375C6.2623 13.4812 6.39355 14.0062 6.39355 15.15C6.39355 15.6187 6.5248 15.7875 6.73105 15.9375C6.7873 15.975 6.8623 16.0125 7.1248 16.0125C7.36855 16.0125 7.66855 15.975 8.11855 15.9375C8.26855 15.9187 8.41855 15.9 8.5873 15.9C9.05605 15.8625 10.4623 15.7125 11.3623 15.5812C11.5873 15.5437 11.8311 15.5062 12.0561 15.4687C12.5998 15.375 13.1436 15.2812 13.5561 15.2812C13.7623 15.2812 13.9311 15.3 14.0623 15.3562C14.4373 15.4875 14.6811 15.825 14.6998 16.2562C14.7373 16.7437 14.4748 17.1937 14.081 17.4C13.6873 17.6062 11.9998 17.9437 11.0061 18.0562C11.0248 18.0937 11.0436 18.1125 11.0436 18.15C11.1748 18.525 11.1186 19.0312 10.9123 19.3687C10.8748 19.4437 10.8185 19.4999 10.781 19.5374C10.9685 19.8937 10.8373 20.3812 10.706 20.6624C10.6685 20.7374 10.6123 20.8499 10.4998 20.9437C10.556 21.0937 10.5935 21.2812 10.5185 21.5625C10.3685 22.2 9.31855 22.5562 7.44355 22.6687C7.2748 22.6875 7.1248 22.6875 6.9748 22.6875V22.6875Z" fill="#FAC036"/>
<path d="M4.65046 12.7312C4.98796 12.7312 5.36296 12.8812 5.55046 13.1625C5.88796 13.65 6.00046 14.0812 6.01921 15.1687C6.01921 15.75 6.20671 16.0312 6.52546 16.2562C6.67546 16.35 6.86296 16.3875 7.12546 16.3875C7.46296 16.3875 7.93171 16.3312 8.60671 16.2562C9.13171 16.2 10.5192 16.0687 11.4005 15.9375C12.0942 15.8437 12.9942 15.6375 13.5567 15.6375C13.7067 15.6375 13.838 15.6562 13.9317 15.6937C14.4942 15.9 14.4192 16.8 13.913 17.0437C13.5567 17.2125 11.7192 17.6062 10.7442 17.6812C10.0505 17.7375 9.90046 17.7937 9.90046 17.8312C9.86296 17.9437 10.2005 17.9062 10.463 18C10.8192 18.1125 10.8192 18.7875 10.5942 19.1437C10.4442 19.3875 10.2755 19.3125 10.2755 19.4625C10.2755 19.5187 10.3692 19.5937 10.4067 19.65C10.538 19.8375 10.4817 20.2312 10.3505 20.475C10.2942 20.5687 10.2567 20.6625 10.1442 20.7C10.0317 20.7375 10.013 20.8125 10.0505 20.925C10.1255 21.0562 10.2005 21.1875 10.1255 21.4687C10.013 21.9 8.92546 22.2 7.38796 22.2937C7.23796 22.2937 7.08796 22.3125 6.95671 22.3125C5.68171 22.3125 4.80046 21.975 4.10671 21.1875C3.30046 20.2687 3.37546 19.125 3.50671 17.7937C3.63796 16.4812 4.20046 16.3687 4.20046 14.9812C4.20046 14.4 3.75046 13.1625 4.18171 12.8437C4.33171 12.7687 4.48171 12.7312 4.65046 12.7312M4.65046 11.9812C4.31296 11.9812 4.01296 12.075 3.76921 12.2437C3.11296 12.7312 3.26296 13.6687 3.39421 14.4C3.43171 14.6062 3.46921 14.85 3.46921 14.9625C3.46921 15.5437 3.35671 15.8062 3.18796 16.1625C3.03796 16.5187 2.83171 16.9687 2.77546 17.7C2.66296 18.9937 2.51296 20.4375 3.56296 21.6562C4.38796 22.6125 5.47546 23.0437 6.97546 23.0437C7.12546 23.0437 7.29421 23.0437 7.46296 23.025C10.2567 22.875 10.7442 22.1625 10.8755 21.6375C10.9317 21.3937 10.9317 21.1875 10.913 21.0187C10.9692 20.925 11.0255 20.85 11.0442 20.7937C11.1755 20.5312 11.3255 20.025 11.213 19.575C11.2317 19.5562 11.2317 19.5375 11.2505 19.5187C11.4567 19.1812 11.5505 18.7312 11.4942 18.3187C12.488 18.1687 13.8567 17.8875 14.2692 17.6812C14.7942 17.4187 15.1317 16.8187 15.0942 16.1812C15.0567 15.6 14.7192 15.1312 14.213 14.9437C14.0442 14.8875 13.838 14.85 13.5942 14.85C13.1442 14.85 12.5817 14.9437 12.0192 15.0375C11.7755 15.075 11.5317 15.1125 11.3255 15.15C10.4255 15.2812 9.03796 15.4125 8.56921 15.4687C8.40046 15.4875 8.25046 15.5062 8.10046 15.5062C7.68796 15.5437 7.36921 15.5812 7.14421 15.5812C7.01296 15.5812 6.97546 15.5625 6.95671 15.5625C6.86296 15.4875 6.78796 15.4312 6.78796 15.0937C6.76921 14.0062 6.67546 13.3687 6.18796 12.675C5.83171 12.2812 5.25046 11.9812 4.65046 11.9812V11.9812Z" fill="#2F2F2F"/>
</svg>
